<svg version="1.1" xmlns="http://www.w3.org/2000/svg" xmlns:xlink="http://www.w3.org/1999/xlink" width="704.75048828125" height="451"><defs/><g><g transform="translate(-126,-102) scale(1,1)"><rect fill="#C0C0C0" stroke="none" x="255" y="119" width="172.54736328125" height="147" opacity="0.2"/></g><g transform="translate(-126,-102) scale(1,1)"><rect fill="#ffffff" stroke="none" x="248" y="112" width="172.54736328125" height="147"/></g><g transform="translate(-126,-102) scale(1,1)"><path fill="none" stroke="#000000" d="M 248 112 L 420.54736328125 112 L 420.54736328125 259 L 248 259 L 248 112 Z Z" stroke-miterlimit="10"/></g><g transform="translate(-126,-102) scale(1,1)"><path fill="none" stroke="#000000" d="M 248 137 L 420.54736328125 137" stroke-miterlimit="10"/></g><g transform="translate(-126,-102) scale(1,1)"><path fill="none" stroke="#000000" d="M 248 250 L 420.54736328125 250" stroke-miterlimit="10"/></g><g transform="translate(-126,-102) scale(1,1)"><g><path fill="none" stroke="none"/><text fill="#000000" stroke="none" font-family="Arial" font-size="13px" font-style="normal" font-weight="bold" text-decoration="none" x="310.425537109375" y="131.5">Hội nghị</text></g></g><g transform="translate(-126,-102) scale(1,1)"><g><path fill="none" stroke="none"/><text fill="#000000" stroke="none" font-family="Arial" font-size="13px" font-style="normal" font-weight="normal" text-decoration="none" x="253" y="154.5">-Tên</text></g></g><g transform="translate(-126,-102) scale(1,1)"><g><path fill="none" stroke="none"/><text fill="#000000" stroke="none" font-family="Arial" font-size="13px" font-style="normal" font-weight="normal" text-decoration="none" x="253" y="169.5">+Mô tả ngắn gọn</text></g></g><g transform="translate(-126,-102) scale(1,1)"><g><path fill="none" stroke="none"/><text fill="#000000" stroke="none" font-family="Arial" font-size="13px" font-style="normal" font-weight="normal" text-decoration="none" x="253" y="184.5">+Mô tả chi tiết</text></g></g><g transform="translate(-126,-102) scale(1,1)"><g><path fill="none" stroke="none"/><text fill="#000000" stroke="none" font-family="Arial" font-size="13px" font-style="normal" font-weight="normal" text-decoration="none" x="253" y="199.5">+Hình ảnh</text></g></g><g transform="translate(-126,-102) scale(1,1)"><g><path fill="none" stroke="none"/><text fill="#000000" stroke="none" font-family="Arial" font-size="13px" font-style="normal" font-weight="normal" text-decoration="none" x="253" y="214.5">+Thời gian tổ chức</text></g></g><g transform="translate(-126,-102) scale(1,1)"><g><path fill="none" stroke="none"/><text fill="#000000" stroke="none" font-family="Arial" font-size="13px" font-style="normal" font-weight="normal" text-decoration="none" x="253" y="229.5">+Thời gian diễn ra hội nghị *</text></g></g><g transform="translate(-126,-102) scale(1,1)"><g><path fill="none" stroke="none"/><text fill="#000000" stroke="none" font-family="Arial" font-size="13px" font-style="normal" font-weight="normal" text-decoration="none" x="253" y="244.5">+Số lượng người tham dự</text></g></g><g transform="translate(-126,-102) scale(1,1)"><rect fill="#C0C0C0" stroke="none" x="551" y="135" width="276.75048828125" height="100" opacity="0.2"/></g><g transform="translate(-126,-102) scale(1,1)"><rect fill="#ffffff" stroke="none" x="544" y="128" width="276.75048828125" height="100"/></g><g transform="translate(-126,-102) scale(1,1)"><path fill="none" stroke="#000000" d="M 544 128 L 820.75048828125 128 L 820.75048828125 228 L 544 228 L 544 128 Z Z" stroke-miterlimit="10"/></g><g transform="translate(-126,-102) scale(1,1)"><path fill="none" stroke="#000000" d="M 544 153 L 820.75048828125 153" stroke-miterlimit="10"/></g><g transform="translate(-126,-102) scale(1,1)"><path fill="none" stroke="#000000" d="M 544 206 L 820.75048828125 206" stroke-miterlimit="10"/></g><g transform="translate(-126,-102) scale(1,1)"><g><path fill="none" stroke="none"/><text fill="#000000" stroke="none" font-family="Arial" font-size="13px" font-style="normal" font-weight="bold" text-decoration="none" x="633.228515625" y="147.5">Địa điểm tổ chức</text></g></g><g transform="translate(-126,-102) scale(1,1)"><g><path fill="none" stroke="none"/><text fill="#000000" stroke="none" font-family="Arial" font-size="13px" font-style="normal" font-weight="normal" text-decoration="none" x="549" y="170.5">+Tên</text></g></g><g transform="translate(-126,-102) scale(1,1)"><g><path fill="none" stroke="none"/><text fill="#000000" stroke="none" font-family="Arial" font-size="13px" font-style="normal" font-weight="normal" text-decoration="none" x="549" y="185.5">+Địa chỉ</text></g></g><g transform="translate(-126,-102) scale(1,1)"><g><path fill="none" stroke="none"/><text fill="#000000" stroke="none" font-family="Arial" font-size="13px" font-style="normal" font-weight="normal" text-decoration="none" x="549" y="200.5">+Sức chứa</text></g></g><g transform="translate(-126,-102) scale(1,1)"><g><path fill="none" stroke="none"/><text fill="#000000" stroke="none" font-family="Arial" font-size="13px" font-style="normal" font-weight="normal" text-decoration="none" x="549" y="223.5">+Kiểm tra địa điểm có đang tốr chức hội nghị()</text></g></g><g transform="translate(-126,-102) scale(1,1)"><path fill="none" stroke="#000000" d="M 422 183 L 543 181" stroke-miterlimit="10"/></g><g transform="translate(-126,-102) scale(1,1)"><g><path fill="none" stroke="none"/><text fill="#000000" stroke="none" font-family="Arial" font-size="13px" font-style="normal" font-weight="normal" text-decoration="none" x="433.5" y="201.5">0..*</text></g></g><g transform="translate(-126,-102) scale(1,1)"><g><path fill="none" stroke="none"/><text fill="#000000" stroke="none" font-family="Arial" font-size="13px" font-style="normal" font-weight="normal" text-decoration="none" x="517.641357421875" y="199.5">1</text></g></g><g transform="translate(-126,-102) scale(1,1)"><rect fill="#C0C0C0" stroke="none" x="455" y="327" width="132.9443359375" height="117" opacity="0.2"/></g><g transform="translate(-126,-102) scale(1,1)"><rect fill="#ffffff" stroke="none" x="448" y="320" width="132.9443359375" height="117"/></g><g transform="translate(-126,-102) scale(1,1)"><path fill="none" stroke="#000000" d="M 448 320 L 580.9443359375 320 L 580.9443359375 437 L 448 437 L 448 320 Z Z" stroke-miterlimit="10"/></g><g transform="translate(-126,-102) scale(1,1)"><path fill="none" stroke="#000000" d="M 448 345 L 580.9443359375 345" stroke-miterlimit="10"/></g><g transform="translate(-126,-102) scale(1,1)"><path fill="none" stroke="#000000" d="M 448 413 L 580.9443359375 413" stroke-miterlimit="10"/></g><g transform="translate(-126,-102) scale(1,1)"><g><path fill="none" stroke="none"/><text fill="#000000" stroke="none" font-family="Arial" font-size="13px" font-style="normal" font-weight="bold" text-decoration="none" x="485.9267578125" y="339.5">Tài khoản</text></g></g><g transform="translate(-126,-102) scale(1,1)"><g><path fill="none" stroke="none"/><text fill="#000000" stroke="none" font-family="Arial" font-size="13px" font-style="normal" font-weight="normal" text-decoration="none" x="453" y="362.5">+Tên</text></g></g><g transform="translate(-126,-102) scale(1,1)"><g><path fill="none" stroke="none"/><text fill="#000000" stroke="none" font-family="Arial" font-size="13px" font-style="normal" font-weight="normal" text-decoration="none" x="453" y="377.5">+Tên đăng nhập</text></g></g><g transform="translate(-126,-102) scale(1,1)"><g><path fill="none" stroke="none"/><text fill="#000000" stroke="none" font-family="Arial" font-size="13px" font-style="normal" font-weight="normal" text-decoration="none" x="453" y="392.5">+Mật khẩu: hash</text></g></g><g transform="translate(-126,-102) scale(1,1)"><g><path fill="none" stroke="none"/><text fill="#000000" stroke="none" font-family="Arial" font-size="13px" font-style="normal" font-weight="normal" text-decoration="none" x="453" y="407.5">+Email</text></g></g><g transform="translate(-126,-102) scale(1,1)"><g><path fill="none" stroke="none"/><text fill="#000000" stroke="none" font-family="Arial" font-size="13px" font-style="normal" font-weight="normal" text-decoration="none" x="453" y="430.5">+Quản lý thông tin()</text></g></g><g transform="translate(-126,-102) scale(1,1)"><path fill="none" stroke="#000000" d="M 459 319 L 404 260" stroke-miterlimit="10"/></g><g transform="translate(-126,-102) scale(1,1)"><g><path fill="none" stroke="none"/><text fill="#000000" stroke="none" font-family="Arial" font-size="13px" font-style="normal" font-weight="normal" text-decoration="none" x="443.5" y="300.5">0..*</text></g></g><g transform="translate(-126,-102) scale(1,1)"><g><path fill="none" stroke="none"/><text fill="#000000" stroke="none" font-family="Arial" font-size="13px" font-style="normal" font-weight="normal" text-decoration="none" x="417.5" y="273.5">0..*</text></g></g><g transform="translate(-126,-102) scale(1,1)"><rect fill="#C0C0C0" stroke="none" x="255" y="463" width="172.67431640625" height="72" opacity="0.2"/></g><g transform="translate(-126,-102) scale(1,1)"><rect fill="#ffffff" stroke="none" x="248" y="456" width="172.67431640625" height="72"/></g><g transform="translate(-126,-102) scale(1,1)"><path fill="none" stroke="#000000" d="M 248 456 L 420.67431640625 456 L 420.67431640625 528 L 248 528 L 248 456 Z Z" stroke-miterlimit="10"/></g><g transform="translate(-126,-102) scale(1,1)"><path fill="none" stroke="#000000" d="M 248 481 L 420.67431640625 481" stroke-miterlimit="10"/></g><g transform="translate(-126,-102) scale(1,1)"><path fill="none" stroke="#000000" d="M 248 491 L 420.67431640625 491" stroke-miterlimit="10"/></g><g transform="translate(-126,-102) scale(1,1)"><g><path fill="none" stroke="none"/><text fill="#000000" stroke="none" font-family="Arial" font-size="13px" font-style="normal" font-weight="bold" text-decoration="none" x="320.613525390625" y="475.5">User</text></g></g><g transform="translate(-126,-102) scale(1,1)"><g><path fill="none" stroke="none"/><text fill="#000000" stroke="none" font-family="Arial" font-size="13px" font-style="normal" font-weight="normal" text-decoration="none" x="253" y="508.5">+Đăng kí tham gia hội nghị()</text></g></g><g transform="translate(-126,-102) scale(1,1)"><rect fill="#C0C0C0" stroke="none" x="623" y="463" width="122.80078125" height="87" opacity="0.2"/></g><g transform="translate(-126,-102) scale(1,1)"><rect fill="#ffffff" stroke="none" x="616" y="456" width="122.80078125" height="87"/></g><g transform="translate(-126,-102) scale(1,1)"><path fill="none" stroke="#000000" d="M 616 456 L 738.80078125 456 L 738.80078125 543 L 616 543 L 616 456 Z Z" stroke-miterlimit="10"/></g><g transform="translate(-126,-102) scale(1,1)"><path fill="none" stroke="#000000" d="M 616 481 L 738.80078125 481" stroke-miterlimit="10"/></g><g transform="translate(-126,-102) scale(1,1)"><path fill="none" stroke="#000000" d="M 616 491 L 738.80078125 491" stroke-miterlimit="10"/></g><g transform="translate(-126,-102) scale(1,1)"><g><path fill="none" stroke="none"/><text fill="#000000" stroke="none" font-family="Arial" font-size="13px" font-style="normal" font-weight="bold" text-decoration="none" x="658.976318359375" y="475.5">Admin</text></g></g><g transform="translate(-126,-102) scale(1,1)"><g><path fill="none" stroke="none"/><text fill="#000000" stroke="none" font-family="Arial" font-size="13px" font-style="normal" font-weight="normal" text-decoration="none" x="621" y="508.5">+Quản lý User()</text></g></g><g transform="translate(-126,-102) scale(1,1)"><g><path fill="none" stroke="none"/><text fill="#000000" stroke="none" font-family="Arial" font-size="13px" font-style="normal" font-weight="normal" text-decoration="none" x="621" y="523.5">+Quản lý hội nghị()</text></g></g><g transform="translate(-126,-102) scale(1,1)"><g><path fill="none" stroke="none"/><text fill="#000000" stroke="none" font-family="Arial" font-size="13px" font-style="normal" font-weight="normal" text-decoration="none" x="621" y="538.5">+Quản lý địa điểm()</text></g></g><g transform="translate(-126,-102) scale(1,1)"><path fill="none" stroke="#000000" d="M 392 455 L 447 420" stroke-miterlimit="10"/></g><g transform="translate(-126,-102) scale(1,1)"><path fill="#FFFFFF" stroke="none" d="M 434.3722590548721 438.01499815772235 L 447 420 L 425.3323113862444 423.8093661070217"/></g><g transform="translate(-126,-102) scale(1,1)"><path fill="none" stroke="#000000" d="M 434.3722590548721 438.01499815772235 L 447 420 L 425.3323113862444 423.8093661070217 L 434.3722590548721 438.01499815772235" stroke-miterlimit="10"/></g><g transform="translate(-126,-102) scale(1,1)"><path fill="none" stroke="#000000" d="M 618 455 L 582 428" stroke-miterlimit="10"/></g><g transform="translate(-126,-102) scale(1,1)"><path fill="#FFFFFF" stroke="none" d="M 603.3117010794178 433.4599814195234 L 582 428 L 593.2088584649795 446.93043823877457"/></g><g transform="translate(-126,-102) scale(1,1)"><path fill="none" stroke="#000000" d="M 603.3117010794178 433.4599814195234 L 582 428 L 593.2088584649795 446.93043823877457 L 603.3117010794178 433.4599814195234" stroke-miterlimit="10"/></g><g transform="translate(-126,-102) scale(1,1)"><rect fill="#C0C0C0" stroke="none" x="143" y="335" width="180.89453125" height="44" opacity="0.2"/></g><g transform="translate(-126,-102) scale(1,1)"><rect fill="#ffffff" stroke="none" x="136" y="328" width="180.89453125" height="44"/></g><g transform="translate(-126,-102) scale(1,1)"><path fill="none" stroke="#000000" d="M 136 328 L 316.89453125 328 L 316.89453125 372 L 136 372 L 136 328 Z Z" stroke-miterlimit="10"/></g><g transform="translate(-126,-102) scale(1,1)"><path fill="none" stroke="#000000" d="M 136 353 L 316.89453125 353" stroke-miterlimit="10"/></g><g transform="translate(-126,-102) scale(1,1)"><path fill="none" stroke="#000000" d="M 136 363 L 316.89453125 363" stroke-miterlimit="10"/></g><g transform="translate(-126,-102) scale(1,1)"><g><path fill="none" stroke="none"/><text fill="#000000" stroke="none" font-family="Arial" font-size="13px" font-style="normal" font-weight="bold" text-decoration="none" x="146.590576171875" y="347.5">Tài khoản tham gia hội nghị</text></g></g><g transform="translate(-126,-102) scale(1,1)"><path fill="none" stroke="#000000" d="M 303 327 L 431 289" stroke-miterlimit="10" stroke-dasharray="3"/></g><g transform="translate(-126,-102) scale(1,1)"><path fill="none" stroke="#000000" d="M 564 319 L 639 229" stroke-miterlimit="10"/></g><g transform="translate(-126,-102) scale(1,1)"><g><path fill="none" stroke="none"/><text fill="#000000" stroke="none" font-family="Arial" font-size="13px" font-style="normal" font-weight="normal" text-decoration="none" x="583.641357421875" y="316.5">1</text></g></g><g transform="translate(-126,-102) scale(1,1)"><g><path fill="none" stroke="none"/><text fill="#000000" stroke="none" font-family="Arial" font-size="13px" font-style="normal" font-weight="normal" text-decoration="none" x="624.5" y="259.5">1..*</text></g></g></g></svg>